<svg version="1.1" id="Layer_1" xmlns="http://www.w3.org/2000/svg" xmlns:xlink="http://www.w3.org/1999/xlink" x="0px" y="0px"
	 width="100%" viewBox="0 0 853 853" enable-background="new 0 0 853 853" xml:space="preserve">
<path fill="#FFFFFF" opacity="1.000000" stroke="none" 
	d="
M412.000000,854.000000 
	C275.017029,854.000000 138.034058,854.000000 1.025539,854.000000 
	C1.025539,569.719055 1.025539,285.438049 1.025539,1.078542 
	C285.245636,1.078542 569.491272,1.078542 853.868469,1.078542 
	C853.868469,285.210266 853.868469,569.420593 853.868469,854.000000 
	C717.640015,854.000000 581.279724,854.000000 444.662262,853.615356 
	C457.355835,852.155945 470.354187,851.471069 483.243805,849.896118 
	C496.026337,848.334229 508.860779,846.571167 521.386047,843.662903 
	C545.941223,837.961426 569.935059,830.386169 593.202698,820.475708 
	C616.532959,810.538513 638.916199,798.879822 660.210693,785.187805 
	C682.031921,771.157227 702.332520,755.025757 721.075562,737.153992 
	C734.555542,724.300537 746.807007,710.158813 759.386169,696.825317 
	C758.789612,695.465332 758.658691,694.975281 758.386230,694.583862 
	C757.721313,693.628723 757.017212,692.697876 756.282959,691.794556 
	C733.549866,663.826904 707.379700,639.513550 677.646301,619.195862 
	C598.016357,564.782410 509.616821,540.511780 413.511780,542.778198 
	C386.319061,543.419556 359.440918,546.374512 332.849731,551.951416 
	C249.842239,569.360107 177.404724,606.594177 117.598511,667.275024 
	C109.455956,675.536621 102.011383,684.486267 94.065613,693.315063 
	C96.774567,696.503235 99.059631,699.072754 101.214012,701.747498 
	C114.812775,718.630737 130.153656,733.771667 146.435989,748.067322 
	C164.432098,763.867676 183.607712,777.942322 203.947510,790.570984 
	C229.119034,806.199524 255.621429,819.006653 283.484924,828.926331 
	C306.184814,837.007690 329.264526,843.942688 353.258545,847.034790 
	C370.964111,849.316589 388.743927,851.020874 406.486755,853.016785 
	C408.337952,853.225098 410.162872,853.666626 412.000000,854.000000 
M270.770447,292.230469 
	C270.457245,295.039978 270.059448,297.842957 269.843414,300.659943 
	C265.652985,355.300842 282.538391,402.154205 322.878204,439.538208 
	C382.591064,494.875732 475.061737,492.728729 532.882446,435.295685 
	C590.802429,377.764069 599.116394,285.059906 550.661987,218.571625 
	C513.175476,167.133301 461.601807,144.885101 398.458710,155.526825 
	C331.781311,166.764191 279.374298,223.937698 270.770447,292.230469 
z"/>
<path fill="#3C9C68" opacity="1.000000" stroke="none" 
	d="
M412.468658,854.000000 
	C410.162872,853.666626 408.337952,853.225098 406.486755,853.016785 
	C388.743927,851.020874 370.964111,849.316589 353.258545,847.034790 
	C329.264526,843.942688 306.184814,837.007690 283.484924,828.926331 
	C255.621429,819.006653 229.119034,806.199524 203.947510,790.570984 
	C183.607712,777.942322 164.432098,763.867676 146.435989,748.067322 
	C130.153656,733.771667 114.812775,718.630737 101.214012,701.747498 
	C99.059631,699.072754 96.774567,696.503235 94.065613,693.315063 
	C102.011383,684.486267 109.455956,675.536621 117.598511,667.275024 
	C177.404724,606.594177 249.842239,569.360107 332.849731,551.951416 
	C359.440918,546.374512 386.319061,543.419556 413.511780,542.778198 
	C509.616821,540.511780 598.016357,564.782410 677.646301,619.195862 
	C707.379700,639.513550 733.549866,663.826904 756.282959,691.794556 
	C757.017212,692.697876 757.721313,693.628723 758.386230,694.583862 
	C758.658691,694.975281 758.789612,695.465332 759.386169,696.825317 
	C746.807007,710.158813 734.555542,724.300537 721.075562,737.153992 
	C702.332520,755.025757 682.031921,771.157227 660.210693,785.187805 
	C638.916199,798.879822 616.532959,810.538513 593.202698,820.475708 
	C569.935059,830.386169 545.941223,837.961426 521.386047,843.662903 
	C508.860779,846.571167 496.026337,848.334229 483.243805,849.896118 
	C470.354187,851.471069 457.355835,852.155945 444.202576,853.615356 
	C433.645782,854.000000 423.291534,854.000000 412.468658,854.000000 
z"/>
<path fill="#3C9C68" opacity="1.000000" stroke="none" 
	d="
M270.821472,291.793274 
	C279.374298,223.937698 331.781311,166.764191 398.458710,155.526825 
	C461.601807,144.885101 513.175476,167.133301 550.661987,218.571625 
	C599.116394,285.059906 590.802429,377.764069 532.882446,435.295685 
	C475.061737,492.728729 382.591064,494.875732 322.878204,439.538208 
	C282.538391,402.154205 265.652985,355.300842 269.843414,300.659943 
	C270.059448,297.842957 270.457245,295.039978 270.821472,291.793274 
z"/>
</svg>